<?xml version="1.0" encoding="utf-8"?>
<!-- Generator: Adobe Illustrator 16.0.0, SVG Export Plug-In . SVG Version: 6.00 Build 0)  -->
<!DOCTYPE svg PUBLIC "-//W3C//DTD SVG 1.1//EN" "http://www.w3.org/Graphics/SVG/1.1/DTD/svg11.dtd">
<svg version="1.1" id="Capa_1" xmlns="http://www.w3.org/2000/svg" xmlns:xlink="http://www.w3.org/1999/xlink" x="0px" y="0px"
	 width="365px" height="365px" viewBox="0 0 365 365" enable-background="new 0 0 365 365" xml:space="preserve">
<g>
	<g>
		<circle fill="#FDB827" cx="278.085" cy="71.936" r="10.051"/>
	</g>
</g>
<g>
	<g>
		<path fill="#F1F1F1" d="M351.578,68.585c-15.521,0-28.846,1.092-41.714-11.776l-16.653-16.653
			c-7.542-7.54-17.766-11.775-28.43-11.775h-46.756h-0.281c-10.684,0-20.927,4.233-28.494,11.775l-0.246,0.245l-31.371,31.37
			c-6.541,6.54-10.215,15.411-10.215,24.661v10.529c0,19.079,15.143,38.759,34.015,41.573c2.094,0.312,4.158,0.462,6.189,0.462
			v2.677c-33.026,19.034-100.79,57.416-114.208,70.733c-11.292,11.296-19.809,29.154-19.809,47.205
			c0,8.057,1.054,16.251,5.738,26.904l-39.243-0.102C9.001,296.414,0,305.415,0,316.518c0,11.102,9.001,20.102,20.103,20.102
			h167.321c9.956,0,16.857-10.691,12.045-19.405c-4.287-7.758-11.06-13.946-19.243-17.497c4.604-9.145,7.276-16.711,18.823-16.711
			h15.379v40.212c0,7.401,6,13.401,13.4,13.401h49.861c10.277,0,16.918-11.209,11.729-20.083
			c-6.177-10.569-17.085-18.035-29.823-19.622l2.98-23.843c16.11-9.889,27.981-26.319,31.247-45.34
			c4.567-26.614-6.764-50.651-25.789-65.03v-27.108h40.205c14.743,0,33.01-10.344,40.595-22.985
			c3.196-5.326,16.199-24.638,16.166-30.668C364.963,74.978,359.392,68.585,351.578,68.585z M187.564,135.451
			c-16.385,0-26.744-13.88-26.744-28.15V96.435c0-5.571,2.126-11.026,6.289-15.187l31.372-31.369
			c4.21-4.209,9.861-7.011,15.947-7.758v66.67C214.428,123.126,202.883,135.451,187.564,135.451z M20.103,323.218
			c-3.694,0-6.701-3.007-6.701-6.7c0-3.695,3.007-6.701,6.665-6.701c48.533,0.125,36.498,0.094,47.37,0.122
			c4.963,6.519,5.771,7.62,13.372,13.279H20.103z M337.342,105.713c-5.438,9.063-18.536,16.479-29.103,16.479h-34.183
			c-8.723,0-16.091-5.619-18.868-13.402H241.23c1.715,8.416,6.662,15.603,13.401,20.443v40.139
			c19.305,14.593,30.252,31.214,25.981,56.093c-3.392,19.755-15.342,30.227-30.536,39.554c-3.22,25.757-4.194,33.546-5.444,43.54
			c13.517,1.682,25.691,1.708,33.057,14.66c-28.024,0-21.9,0-49.861,0c0-32.129,0-34.719,0-67.009h-13.4v13.396
			c-3.551,0-6.375,0-15.379,0c-4.136,0-7.992,1.097-11.65,2.643c0.657-18.211-5.932-36.545-19.406-50.021l-9.476,9.476
			c19.87,19.88,18.654,48.961,7.329,66.701l-4.018,7.943c10.425,4.521,20.417,7.344,25.596,16.871h-66.849
			c-29.693-0.027-53.143-23.943-53.496-52.885c-0.285-16.033,6.989-32.619,21.712-43.586c14.75-10.987,96.296-58.147,112.233-67.331
			c0-3.645,0.007-9.417-0.01-12.881c15.584-5.537,26.812-20.263,26.812-37.746V41.782h36.957c7.109,0,13.925,2.824,18.95,7.85
			l16.651,16.652c9.543,9.544,22.092,14.866,35.486,15.466c1.416,4.872,4.712,8.892,9.083,11.273L337.342,105.713z"/>
	</g>
</g>
</svg>
